<svg width="299" height="120" viewBox="0 0 299 120" fill="none" xmlns="http://www.w3.org/2000/svg">
<rect width="299" height="119.24" fill="#DC2626"/>
<g clip-path="url(#clip0_772_5933)">
<path d="M47.0647 81.3568C47.3278 81.921 47.7469 82.3981 48.2724 82.7318C48.798 83.0655 49.408 83.2419 50.0305 83.2401C50.1248 83.2401 50.2196 83.2361 50.315 83.228L47.0647 81.3568ZM47.0647 81.3568L35.9403 57.8721L47.0647 81.3568ZM37.7506 56.8979L37.8219 56.8266L49.6897 44.9588C49.8698 44.7787 49.9709 44.5345 49.9709 44.2799C49.9709 44.0253 49.8698 43.7811 49.6897 43.6011C49.5097 43.4211 49.2655 43.3199 49.0109 43.3199C48.7563 43.3199 48.5121 43.4211 48.3321 43.6011L36.4642 55.4689L36.3926 55.5405L36.3031 55.4932L36.2965 55.4897L12.8145 44.3667L12.8732 44.2427L12.8145 44.3666C12.5874 44.259 12.3985 44.0847 12.2732 43.8669C12.1478 43.6491 12.0919 43.3982 12.1129 43.1477C12.134 42.8973 12.2309 42.6593 12.3909 42.4654C12.5508 42.2716 12.7661 42.1312 13.008 42.0629L64.1205 27.6467C64.1206 27.6467 64.1207 27.6466 64.1208 27.6466C64.234 27.614 64.3512 27.5973 64.469 27.5969L64.4713 27.5969C64.7939 27.6012 65.102 27.7322 65.3289 27.9615C65.3292 27.9618 65.3294 27.9621 65.3297 27.9623L37.7506 56.8979ZM37.7506 56.8979L37.7973 56.9871L37.8007 56.9937L48.9242 80.4763L49.0273 80.4275M37.7506 56.8979L49.0273 80.4275M49.0273 80.4275L48.9242 80.4763C49.0318 80.7035 49.2062 80.8923 49.424 81.0177C49.6418 81.1431 49.8927 81.199 50.1431 81.1779C50.3935 81.1569 50.6316 81.0599 50.8254 80.9C51.0193 80.74 51.1597 80.5247 51.2279 80.2829L65.6439 29.1711L49.0273 80.4275ZM66.686 26.6034L66.6875 26.6048C67.0872 26.9988 67.3731 27.4935 67.5148 28.0366C67.6566 28.5796 67.6489 29.1509 67.4926 29.69L67.4924 29.691L53.0759 80.8042L53.0757 80.8049C52.9047 81.4246 52.5469 81.9766 52.051 82.3857C51.5551 82.7948 50.9452 83.0412 50.3043 83.0913L50.3035 83.0914C50.2119 83.0991 50.1209 83.1029 50.0305 83.1029H50.0301C49.4338 83.1047 48.8494 82.9357 48.346 82.616C47.8425 82.2963 47.4411 81.8393 47.189 81.2989L47.1887 81.2981L36.0643 57.8134L36.0642 57.8132C35.9419 57.5559 35.7347 57.3487 35.4774 57.2264L35.4772 57.2263L11.9927 46.1022L11.934 46.2261L11.9927 46.1022C11.4123 45.8273 10.9296 45.3817 10.6091 44.8251C10.2887 44.2685 10.1458 43.6274 10.1995 42.9874C10.2532 42.3474 10.5009 41.739 10.9096 41.2436C11.3183 40.7482 11.8685 40.3893 12.4867 40.2149L63.5999 25.7985L63.6008 25.7982C64.1399 25.6419 64.7112 25.6342 65.2543 25.7759C65.7974 25.9176 66.2921 26.2035 66.686 26.6034Z" fill="white" stroke="white" stroke-width="0.274318"/>
<path d="M48.8947 44.4105V22.9478M48.8947 22.9478V10.2633C48.8947 10.1179 48.7768 10 48.6314 10H30.7953C30.5598 10 30.4427 10.2854 30.6103 10.4508L36.4611 16.2225C36.5648 16.3249 36.5657 16.4921 36.463 16.5956L30.5992 22.4989C30.4342 22.6651 30.5519 22.9478 30.7861 22.9478H48.8947Z" stroke="white" stroke-width="2.19455"/>
<path d="M92.2127 58.0478C91.4432 57.1008 91.0585 56.2573 91.0585 55.5175C91.0585 54.748 91.6948 53.7418 92.9674 52.4988C93.7072 51.7886 94.4915 51.4334 95.3201 51.4334C96.1488 51.4334 97.3029 52.1733 98.7827 53.653C99.197 54.1561 99.7889 54.6444 100.558 55.1179C101.328 55.5618 102.038 55.7838 102.689 55.7838C105.441 55.7838 106.818 54.6592 106.818 52.41C106.818 51.7294 106.433 51.1671 105.663 50.7232C104.924 50.2496 103.991 49.9093 102.867 49.7022C101.742 49.495 100.529 49.1695 99.2266 48.7255C97.9244 48.252 96.7111 47.7045 95.5865 47.083C94.4619 46.4616 93.5149 45.4849 92.7454 44.1532C92.0055 42.7919 91.6356 41.1642 91.6356 39.2701C91.6356 36.6658 92.5974 34.4018 94.5211 32.4782C96.4743 30.525 99.123 29.5483 102.467 29.5483C104.243 29.5483 105.856 29.7851 107.306 30.2586C108.786 30.7025 109.807 31.1612 110.369 31.6348L111.479 32.4782C112.396 33.3364 112.855 34.0615 112.855 34.6534C112.855 35.2453 112.5 36.0591 111.789 37.0949C110.783 38.5746 109.747 39.3145 108.682 39.3145C108.061 39.3145 107.291 39.0186 106.374 38.4267C106.285 38.3675 106.107 38.2195 105.841 37.9828C105.604 37.746 105.382 37.5536 105.175 37.4057C104.554 37.0209 103.755 36.8286 102.778 36.8286C101.831 36.8286 101.032 37.0653 100.381 37.5388C99.7593 37.9828 99.4485 38.619 99.4485 39.4477C99.4485 40.2467 99.8185 40.8978 100.558 41.4009C101.328 41.904 102.275 42.2444 103.399 42.4219C104.524 42.5995 105.752 42.8806 107.084 43.2654C108.416 43.6205 109.644 44.0644 110.768 44.5971C111.893 45.1298 112.825 46.062 113.565 47.3938C114.335 48.6959 114.719 50.3088 114.719 52.2325C114.719 54.1561 114.335 55.8578 113.565 57.3375C112.796 58.7876 111.789 59.9122 110.546 60.7113C108.149 62.2798 105.589 63.064 102.867 63.064C101.476 63.064 100.159 62.9013 98.9158 62.5757C97.6729 62.2206 96.6667 61.7915 95.8972 61.2884C94.3287 60.3413 93.2337 59.4239 92.6122 58.5361L92.2127 58.0478ZM132.876 29.6815C137.256 29.6815 141.059 31.2648 144.284 34.4314C147.51 37.598 149.123 41.5341 149.123 46.2396C149.123 50.9155 147.584 54.9108 144.506 58.2253C141.429 61.5103 137.64 63.1528 133.142 63.1528C128.644 63.1528 124.811 61.5251 121.645 58.2697C118.508 55.0144 116.939 51.1375 116.939 46.6391C116.939 44.1828 117.383 41.8892 118.271 39.7584C119.159 37.598 120.343 35.7928 121.822 34.3426C123.302 32.8925 125.004 31.7531 126.927 30.9245C128.851 30.0958 130.834 29.6815 132.876 29.6815ZM124.797 46.4172C124.797 49.0511 125.64 51.1967 127.327 52.854C129.043 54.4817 130.952 55.2955 133.053 55.2955C135.155 55.2955 137.049 54.4964 138.735 52.8983C140.422 51.3003 141.266 49.1547 141.266 46.4616C141.266 43.7685 140.408 41.6081 138.691 39.9804C137.004 38.3527 135.11 37.5388 133.009 37.5388C130.908 37.5388 129.014 38.3675 127.327 40.0248C125.64 41.6525 124.797 43.7833 124.797 46.4172ZM167.297 29.6815C171.677 29.6815 175.48 31.2648 178.705 34.4314C181.931 37.598 183.544 41.5341 183.544 46.2396C183.544 50.9155 182.005 54.9108 178.927 58.2253C175.849 61.5103 172.061 63.1528 167.563 63.1528C163.065 63.1528 159.232 61.5251 156.066 58.2697C152.929 55.0144 151.36 51.1375 151.36 46.6391C151.36 44.1828 151.804 41.8892 152.692 39.7584C153.58 37.598 154.763 35.7928 156.243 34.3426C157.723 32.8925 159.425 31.7531 161.348 30.9245C163.272 30.0958 165.255 29.6815 167.297 29.6815ZM159.217 46.4172C159.217 49.0511 160.061 51.1967 161.748 52.854C163.464 54.4817 165.373 55.2955 167.474 55.2955C169.575 55.2955 171.469 54.4964 173.156 52.8983C174.843 51.3003 175.687 49.1547 175.687 46.4616C175.687 43.7685 174.828 41.6081 173.112 39.9804C171.425 38.3527 169.531 37.5388 167.43 37.5388C165.329 37.5388 163.435 38.3675 161.748 40.0248C160.061 41.6525 159.217 43.7833 159.217 46.4172ZM221.028 31.324C221.265 31.7679 221.398 32.1675 221.427 32.5226C221.487 32.8777 221.516 33.3956 221.516 34.0763V58.7137C221.516 60.7557 220.954 61.9542 219.829 62.3094C219.267 62.4869 218.557 62.5757 217.698 62.5757C216.84 62.5757 216.16 62.5017 215.656 62.3538C215.153 62.2058 214.769 62.0282 214.502 61.8211C214.236 61.6139 214.029 61.318 213.881 60.9332C213.733 60.4301 213.659 59.6607 213.659 58.6249V43.7537C212.919 44.6711 211.839 46.136 210.418 48.1484C208.998 50.1313 208.095 51.3742 207.71 51.8773C207.326 52.3804 207.059 52.7356 206.911 52.9427C206.763 53.1203 206.393 53.3867 205.802 53.7418C205.239 54.0673 204.618 54.2301 203.937 54.2301C203.286 54.2301 202.679 54.0821 202.117 53.7862C201.584 53.4606 201.2 53.1499 200.963 52.854L200.608 52.3656C200.016 51.6258 198.847 50.0573 197.101 47.6601C195.355 45.2334 194.408 43.9312 194.26 43.7537V58.7137C194.26 59.3943 194.23 59.9122 194.171 60.2674C194.141 60.5929 194.008 60.9628 193.771 61.3772C193.327 62.1762 192.173 62.5757 190.309 62.5757C188.504 62.5757 187.379 62.1762 186.935 61.3772C186.698 60.9628 186.55 60.5781 186.491 60.223C186.462 59.8678 186.447 59.3351 186.447 58.6249V33.9875C186.447 33.3068 186.462 32.8037 186.491 32.4782C186.55 32.1231 186.698 31.7235 186.935 31.2796C187.379 30.5102 188.533 30.1254 190.398 30.1254C191.197 30.1254 191.877 30.229 192.44 30.4362C193.032 30.6137 193.416 30.8061 193.594 31.0133L193.86 31.2796L203.937 44.5083C208.968 37.8496 212.327 33.4548 214.014 31.324C214.517 30.525 215.701 30.1254 217.565 30.1254C219.459 30.1254 220.614 30.525 221.028 31.324ZM242.03 42.999H249.843C251.441 43.0582 252.418 43.4725 252.773 44.242C253.069 44.8043 253.217 45.6329 253.217 46.7279V56.4941C253.217 57.4411 252.803 58.3437 251.974 59.202C249.488 61.7767 245.759 63.064 240.787 63.064C236.378 63.064 232.545 61.4067 229.29 58.0922C226.035 54.748 224.407 50.7232 224.407 46.0176C224.407 41.3121 226.064 37.3909 229.379 34.2539C232.693 31.0873 236.6 29.504 241.098 29.504C244.59 29.504 247.89 30.6581 250.997 32.9665C251.796 33.5584 252.196 34.2243 252.196 34.9641C252.196 35.6744 251.856 36.503 251.175 37.4501C250.021 39.0186 248.97 39.8028 248.023 39.8028C247.461 39.8028 246.558 39.4033 245.315 38.6042C244.072 37.7756 242.593 37.3613 240.876 37.3613C238.627 37.3613 236.629 38.1603 234.883 39.7584C233.137 41.3269 232.264 43.3985 232.264 45.9733C232.264 48.5184 233.152 50.6936 234.928 52.4988C236.703 54.2745 238.716 55.1623 240.965 55.1623C242.593 55.1623 244.058 54.896 245.36 54.3633V49.5246H241.853C240.935 49.5246 240.284 49.4062 239.899 49.1695C239.515 48.9327 239.263 48.5924 239.145 48.1484C239.026 47.6749 238.967 47.0535 238.967 46.284C238.967 45.4849 239.026 44.8487 239.145 44.3752C239.293 43.9016 239.544 43.5761 239.899 43.3985C240.432 43.1322 241.142 42.999 242.03 42.999ZM275.54 32.3894L287.526 57.1599C288.029 58.1662 288.28 58.9208 288.28 59.4239C288.28 60.4893 287.422 61.4511 285.706 62.3094C284.7 62.8125 283.901 63.064 283.309 63.064C282.746 63.064 282.273 62.9309 281.888 62.6645C281.533 62.3982 281.267 62.117 281.089 61.8211C280.941 61.5251 280.719 61.0812 280.423 60.4893L278.115 55.695H265.818L263.51 60.4893C263.214 61.0812 262.977 61.5103 262.8 61.7767C262.652 62.043 262.385 62.3242 262.001 62.6201C261.646 62.8865 261.172 63.0196 260.58 63.0196C260.018 63.0196 259.234 62.7681 258.227 62.265C256.511 61.4363 255.653 60.4893 255.653 59.4239C255.653 58.9208 255.904 58.1662 256.407 57.1599L268.393 32.345C268.719 31.6644 269.207 31.1169 269.858 30.7025C270.539 30.2882 271.249 30.081 271.989 30.081C273.587 30.081 274.771 30.8505 275.54 32.3894ZM271.944 43.0434L269.015 49.1251H274.919L271.944 43.0434Z" fill="white"/>
</g>
<path d="M57.5089 96.337L60.0049 96.3505C61.3091 96.3505 62.4559 96.8227 63.4454 97.7671C64.4348 98.7025 64.9295 99.8583 64.9295 101.235C64.9295 102.602 64.4438 103.775 63.4723 104.756C62.5099 105.736 61.3406 106.226 59.9645 106.226H57.4954C56.9468 106.226 56.605 106.114 56.4701 105.889C56.3621 105.7 56.3082 105.412 56.3082 105.026V97.5243C56.3082 97.3084 56.3127 97.151 56.3217 97.052C56.3396 96.9531 56.3846 96.8362 56.4566 96.7012C56.5825 96.4584 56.9333 96.337 57.5089 96.337ZM60.0049 103.838C60.6525 103.838 61.2372 103.6 61.7589 103.123C62.2806 102.638 62.5414 102.031 62.5414 101.302C62.5414 100.573 62.2851 99.9663 61.7724 99.4806C61.2687 98.9859 60.675 98.7385 59.9914 98.7385H58.6962V103.838H60.0049ZM72.6617 101.842C72.6617 102.39 72.5222 102.8 72.2434 103.069C71.9736 103.33 71.6723 103.461 71.3395 103.461H68.1419C68.1419 103.713 68.2903 103.924 68.5871 104.095C68.8839 104.266 69.1808 104.351 69.4776 104.351C69.9993 104.351 70.4085 104.297 70.7053 104.189L70.8538 104.135C71.0696 104.036 71.2495 103.987 71.3934 103.987C71.6813 103.987 71.9286 104.189 72.1355 104.594C72.2524 104.837 72.3109 105.044 72.3109 105.215C72.3109 106.015 71.353 106.415 69.4371 106.415C68.7715 106.415 68.1779 106.303 67.6562 106.078C67.1435 105.844 66.7432 105.538 66.4554 105.161C65.8887 104.432 65.6054 103.618 65.6054 102.719C65.6054 101.585 65.9697 100.681 66.6983 100.007C67.4358 99.3232 68.3533 98.9814 69.4506 98.9814C70.7008 98.9814 71.6183 99.4221 72.2029 100.304C72.5088 100.771 72.6617 101.284 72.6617 101.842ZM69.8149 102.233C70.1567 102.233 70.3276 102.089 70.3276 101.801C70.3276 101.594 70.2466 101.428 70.0847 101.302C69.9318 101.176 69.7069 101.113 69.4101 101.113C69.1223 101.113 68.8345 101.235 68.5466 101.477C68.2588 101.711 68.1149 101.963 68.1149 102.233H69.8149ZM73.5959 105.606C73.425 105.498 73.3395 105.327 73.3395 105.093C73.3395 104.859 73.5104 104.504 73.8522 104.027C73.9512 103.874 74.1086 103.798 74.3244 103.798C74.5493 103.798 74.8506 103.91 75.2284 104.135C75.6062 104.351 75.9479 104.459 76.2538 104.459C76.8024 104.459 77.0768 104.351 77.0768 104.135C77.0768 103.964 76.7754 103.838 76.1728 103.757C75.6062 103.677 75.044 103.465 74.4863 103.123C74.2255 102.961 74.0096 102.71 73.8387 102.368C73.6678 102.017 73.5824 101.603 73.5824 101.127C73.5824 99.7054 74.5583 98.9949 76.5101 98.9949C77.1487 98.9949 77.8053 99.1478 78.4799 99.4536C78.7947 99.5975 78.9521 99.7774 78.9521 99.9933C78.9521 100.209 78.8532 100.474 78.6553 100.789C78.4574 101.104 78.2551 101.261 78.0482 101.261C77.9402 101.261 77.7379 101.194 77.441 101.059C77.1532 100.924 76.8384 100.857 76.4966 100.857C75.9659 100.857 75.7006 100.956 75.7006 101.154C75.7006 101.423 76.0064 101.599 76.618 101.68C77.2117 101.743 77.7873 101.914 78.345 102.192C78.6058 102.318 78.8217 102.539 78.9926 102.854C79.1725 103.159 79.2624 103.546 79.2624 104.014C79.2624 104.482 79.1725 104.882 78.9926 105.215C78.8217 105.538 78.5789 105.781 78.264 105.943C77.6884 106.222 76.9643 106.361 76.0919 106.361C75.2284 106.361 74.3964 106.11 73.5959 105.606ZM80.1429 100.317C80.1429 100.11 80.1474 99.9573 80.1564 99.8583C80.1744 99.7504 80.2149 99.629 80.2778 99.4941C80.4037 99.2602 80.7545 99.1433 81.3302 99.1433C81.7619 99.1433 82.0677 99.2197 82.2476 99.3726C82.4005 99.4986 82.4815 99.6919 82.4905 99.9528C82.4995 100.043 82.504 100.173 82.504 100.344V105.066C82.504 105.273 82.495 105.43 82.477 105.538C82.468 105.637 82.4275 105.754 82.3556 105.889C82.2386 106.123 81.8923 106.24 81.3167 106.24C80.75 106.24 80.4037 106.119 80.2778 105.876C80.2149 105.741 80.1744 105.624 80.1564 105.525C80.1474 105.426 80.1429 105.269 80.1429 105.053V100.317ZM82.3556 97.8211C82.2926 97.947 82.1757 98.0369 82.0048 98.0909C81.8339 98.1449 81.6045 98.1719 81.3167 98.1719C81.0379 98.1719 80.813 98.1449 80.6421 98.0909C80.4712 98.0369 80.3498 97.9425 80.2778 97.8076C80.2149 97.6727 80.1744 97.5557 80.1564 97.4568C80.1474 97.3489 80.1429 97.1915 80.1429 96.9846C80.1429 96.7777 80.1474 96.6248 80.1564 96.5259C80.1744 96.4179 80.2149 96.301 80.2778 96.1751C80.4037 95.9322 80.7545 95.8108 81.3302 95.8108C81.8968 95.8108 82.2386 95.9322 82.3556 96.1751C82.4275 96.31 82.468 96.4314 82.477 96.5393C82.495 96.6383 82.504 96.7912 82.504 96.9981C82.504 97.2049 82.495 97.3623 82.477 97.4703C82.468 97.5692 82.4275 97.6862 82.3556 97.8211ZM88.088 105.35C87.7462 105.799 87.2021 106.024 86.4555 106.024C85.709 106.024 85.0074 105.682 84.3508 104.999C83.7032 104.306 83.3794 103.501 83.3794 102.584C83.3794 101.666 83.7077 100.861 84.3643 100.169C85.0209 99.4761 85.7404 99.1298 86.523 99.1298C86.8288 99.1298 87.1076 99.1882 87.3595 99.3052C87.6113 99.4131 87.7822 99.5165 87.8721 99.6155C87.9711 99.7054 88.0475 99.7909 88.1015 99.8718C88.1285 99.62 88.2184 99.4311 88.3713 99.3052C88.5332 99.1703 88.7896 99.1028 89.1404 99.1028C89.4912 99.1028 89.7475 99.1298 89.9094 99.1837C90.0713 99.2377 90.1838 99.3322 90.2467 99.4671C90.3187 99.593 90.3591 99.7054 90.3681 99.8044C90.3861 99.9033 90.3951 100.056 90.3951 100.263V105.849C90.3951 106.883 90.0353 107.715 89.3158 108.345C88.5962 108.983 87.7867 109.303 86.8872 109.303C86.2037 109.303 85.5515 109.136 84.9309 108.803C84.3103 108.471 84 108.169 84 107.899C84 107.549 84.1349 107.238 84.4047 106.969C84.5756 106.78 84.7061 106.649 84.796 106.577C84.8949 106.505 85.0074 106.469 85.1333 106.469C85.2592 106.469 85.3896 106.523 85.5246 106.631C85.9563 106.964 86.424 107.13 86.9277 107.13C87.2695 107.13 87.5483 106.996 87.7642 106.726C87.9801 106.456 88.088 106.132 88.088 105.754V105.35ZM85.6865 102.597C85.6865 102.885 85.7989 103.146 86.0238 103.38C86.2576 103.614 86.5365 103.731 86.8603 103.731C87.1931 103.731 87.4674 103.614 87.6833 103.38C87.8991 103.137 88.0071 102.876 88.0071 102.597C88.0071 102.309 87.9036 102.044 87.6968 101.801C87.4899 101.549 87.211 101.423 86.8603 101.423C86.5095 101.423 86.2261 101.545 86.0103 101.788C85.7944 102.031 85.6865 102.3 85.6865 102.597ZM95.4271 99.1298C96.3265 99.1298 97.0731 99.4761 97.6667 100.169C98.2693 100.852 98.5707 101.689 98.5707 102.678V105.053C98.5707 105.26 98.5617 105.417 98.5437 105.525C98.5347 105.624 98.4987 105.736 98.4357 105.862C98.3098 106.105 97.959 106.226 97.3834 106.226C96.7448 106.226 96.376 106.06 96.277 105.727C96.2231 105.574 96.1961 105.345 96.1961 105.039V102.665C96.1961 102.296 96.0882 102.008 95.8723 101.801C95.6654 101.594 95.3821 101.491 95.0223 101.491C94.6715 101.491 94.3837 101.599 94.1588 101.815C93.943 102.031 93.835 102.314 93.835 102.665V105.053C93.835 105.26 93.826 105.417 93.808 105.525C93.799 105.624 93.7586 105.736 93.6866 105.862C93.5697 106.105 93.2234 106.226 92.6477 106.226C92.0811 106.226 91.7348 106.105 91.6089 105.862C91.5459 105.727 91.5054 105.61 91.4874 105.511C91.4784 105.403 91.4739 105.246 91.4739 105.039V100.263C91.4739 100.065 91.4784 99.9168 91.4874 99.8179C91.5054 99.7099 91.5504 99.593 91.6224 99.4671C91.7483 99.2422 92.0946 99.1298 92.6612 99.1298C93.2099 99.1298 93.5472 99.2332 93.6731 99.4401C93.7631 99.593 93.808 99.7774 93.808 99.9933C93.844 99.9303 93.925 99.8404 94.0509 99.7234C94.1768 99.6065 94.2982 99.5121 94.4152 99.4401C94.721 99.2332 95.0583 99.1298 95.4271 99.1298ZM106.51 101.842C106.51 102.39 106.37 102.8 106.092 103.069C105.822 103.33 105.52 103.461 105.188 103.461H101.99C101.99 103.713 102.139 103.924 102.435 104.095C102.732 104.266 103.029 104.351 103.326 104.351C103.847 104.351 104.257 104.297 104.554 104.189L104.702 104.135C104.918 104.036 105.098 103.987 105.242 103.987C105.529 103.987 105.777 104.189 105.984 104.594C106.101 104.837 106.159 105.044 106.159 105.215C106.159 106.015 105.201 106.415 103.285 106.415C102.62 106.415 102.026 106.303 101.504 106.078C100.992 105.844 100.591 105.538 100.304 105.161C99.737 104.432 99.4536 103.618 99.4536 102.719C99.4536 101.585 99.8179 100.681 100.546 100.007C101.284 99.3232 102.201 98.9814 103.299 98.9814C104.549 98.9814 105.467 99.4221 106.051 100.304C106.357 100.771 106.51 101.284 106.51 101.842ZM103.663 102.233C104.005 102.233 104.176 102.089 104.176 101.801C104.176 101.594 104.095 101.428 103.933 101.302C103.78 101.176 103.555 101.113 103.258 101.113C102.971 101.113 102.683 101.235 102.395 101.477C102.107 101.711 101.963 101.963 101.963 102.233H103.663ZM112.153 96.1751C112.225 96.0401 112.346 95.9457 112.517 95.8917C112.688 95.8378 112.913 95.8108 113.192 95.8108C113.479 95.8108 113.709 95.8378 113.88 95.8917C114.051 95.9457 114.168 96.0401 114.23 96.1751C114.302 96.31 114.343 96.4314 114.352 96.5393C114.37 96.6383 114.379 96.7912 114.379 96.9981V105.053C114.379 105.26 114.37 105.417 114.352 105.525C114.343 105.624 114.302 105.736 114.23 105.862C114.096 106.105 113.713 106.226 113.084 106.226C112.463 106.226 112.117 106.006 112.045 105.565C111.667 105.997 111.141 106.213 110.466 106.213C109.657 106.213 108.919 105.862 108.254 105.161C107.588 104.45 107.255 103.627 107.255 102.692C107.255 101.747 107.588 100.92 108.254 100.209C108.928 99.4986 109.666 99.1433 110.466 99.1433C111.132 99.1433 111.649 99.3681 112.018 99.8179V96.9846C112.018 96.7777 112.022 96.6248 112.031 96.5259C112.049 96.4179 112.09 96.301 112.153 96.1751ZM109.967 103.501C110.201 103.744 110.484 103.865 110.817 103.865C111.15 103.865 111.424 103.744 111.64 103.501C111.865 103.258 111.977 102.993 111.977 102.705C111.977 102.408 111.869 102.134 111.654 101.882C111.447 101.63 111.163 101.504 110.804 101.504C110.444 101.504 110.156 101.63 109.94 101.882C109.724 102.125 109.616 102.395 109.616 102.692C109.616 102.988 109.733 103.258 109.967 103.501ZM122.765 99.1433C123.566 99.1433 124.299 99.4986 124.964 100.209C125.639 100.92 125.976 101.747 125.976 102.692C125.976 103.627 125.644 104.45 124.978 105.161C124.312 105.862 123.597 106.213 122.833 106.213C122.068 106.213 121.524 105.997 121.2 105.565C121.128 106.006 120.741 106.226 120.04 106.226C119.473 106.226 119.127 106.105 119.001 105.862C118.938 105.727 118.898 105.61 118.88 105.511C118.871 105.403 118.866 105.246 118.866 105.039V96.9846C118.866 96.7777 118.871 96.6248 118.88 96.5259C118.898 96.4179 118.938 96.301 119.001 96.1751C119.127 95.9322 119.478 95.8108 120.053 95.8108C120.62 95.8108 120.962 95.9322 121.079 96.1751C121.151 96.31 121.191 96.4314 121.2 96.5393C121.218 96.6383 121.227 96.7912 121.227 96.9981V99.8044C121.587 99.3636 122.1 99.1433 122.765 99.1433ZM121.578 103.501C121.803 103.744 122.082 103.865 122.414 103.865C122.747 103.865 123.031 103.744 123.264 103.501C123.498 103.258 123.615 102.988 123.615 102.692C123.615 102.395 123.507 102.125 123.291 101.882C123.076 101.63 122.788 101.504 122.428 101.504C122.068 101.504 121.78 101.63 121.564 101.882C121.358 102.134 121.254 102.408 121.254 102.705C121.254 102.993 121.362 103.258 121.578 103.501ZM133.462 99.2107C133.992 99.4446 134.258 99.7279 134.258 100.061C134.258 100.223 134.222 100.376 134.15 100.519C134.078 100.663 134.042 100.74 134.042 100.749L130.507 108.655C130.435 108.826 130.372 108.956 130.318 109.046C130.273 109.136 130.197 109.222 130.089 109.303C129.981 109.384 129.846 109.424 129.684 109.424C129.522 109.424 129.284 109.357 128.969 109.222C128.438 108.988 128.173 108.709 128.173 108.385C128.173 108.169 128.604 107.139 129.468 105.296L126.783 100.776C126.603 100.479 126.513 100.259 126.513 100.115C126.513 99.8269 126.756 99.539 127.242 99.2512C127.548 99.0713 127.786 98.9814 127.957 98.9814C128.128 98.9814 128.267 99.0173 128.375 99.0893C128.483 99.1613 128.56 99.2377 128.604 99.3187C128.658 99.3906 128.906 99.8089 129.347 100.573C129.796 101.329 130.224 102.035 130.628 102.692C130.673 102.548 130.916 101.995 131.357 101.032C131.798 100.061 132.031 99.5435 132.058 99.4806C132.094 99.4176 132.148 99.3412 132.22 99.2512C132.337 99.0983 132.499 99.0218 132.706 99.0218C132.922 99.0218 133.174 99.0848 133.462 99.2107ZM139.053 96.337H146.555C146.842 96.337 147.054 96.3729 147.189 96.4449C147.324 96.5079 147.414 96.6113 147.459 96.7552C147.504 96.8991 147.526 97.088 147.526 97.3219C147.526 97.5557 147.504 97.7446 147.459 97.8885C147.414 98.0234 147.337 98.1179 147.229 98.1719C147.067 98.2528 146.838 98.2933 146.541 98.2933H143.964V105.08C143.964 105.287 143.955 105.439 143.937 105.538C143.928 105.637 143.888 105.754 143.816 105.889C143.753 106.015 143.636 106.105 143.465 106.159C143.294 106.213 143.069 106.24 142.79 106.24C142.512 106.24 142.287 106.213 142.116 106.159C141.954 106.105 141.837 106.015 141.765 105.889C141.702 105.754 141.662 105.637 141.644 105.538C141.635 105.43 141.63 105.273 141.63 105.066V98.2933H139.04C138.752 98.2933 138.54 98.2618 138.406 98.1988C138.271 98.1269 138.181 98.019 138.136 97.875C138.091 97.7311 138.068 97.5422 138.068 97.3084C138.068 97.0745 138.091 96.8901 138.136 96.7552C138.181 96.6113 138.257 96.5124 138.365 96.4584C138.527 96.3774 138.756 96.337 139.053 96.337ZM152.214 99.1568C153.113 99.1568 153.86 99.4986 154.453 100.182C155.056 100.866 155.357 101.702 155.357 102.692V105.066C155.357 105.273 155.348 105.43 155.33 105.538C155.321 105.637 155.281 105.754 155.209 105.889C155.092 106.123 154.746 106.24 154.17 106.24C153.621 106.24 153.28 106.123 153.145 105.889C153.073 105.754 153.028 105.633 153.01 105.525C153.001 105.417 152.996 105.255 152.996 105.039V102.678C152.996 102.309 152.893 102.022 152.686 101.815C152.479 101.608 152.214 101.504 151.89 101.504C151.575 101.504 151.296 101.603 151.053 101.801C150.811 101.99 150.671 102.206 150.635 102.449V105.066C150.635 105.273 150.626 105.43 150.608 105.538C150.599 105.637 150.559 105.754 150.487 105.889C150.37 106.123 150.024 106.24 149.448 106.24C148.881 106.24 148.535 106.119 148.409 105.876C148.346 105.741 148.306 105.624 148.288 105.525C148.279 105.426 148.274 105.269 148.274 105.053V96.9846C148.274 96.7777 148.279 96.6248 148.288 96.5259C148.306 96.4179 148.346 96.301 148.409 96.1751C148.535 95.9322 148.886 95.8108 149.461 95.8108C150.028 95.8108 150.37 95.9322 150.487 96.1751C150.559 96.31 150.599 96.4314 150.608 96.5393C150.626 96.6383 150.635 96.7912 150.635 96.9981V99.9798C151.085 99.4311 151.611 99.1568 152.214 99.1568ZM163.297 101.842C163.297 102.39 163.157 102.8 162.879 103.069C162.609 103.33 162.307 103.461 161.975 103.461H158.777C158.777 103.713 158.926 103.924 159.222 104.095C159.519 104.266 159.816 104.351 160.113 104.351C160.634 104.351 161.044 104.297 161.341 104.189L161.489 104.135C161.705 104.036 161.885 103.987 162.029 103.987C162.316 103.987 162.564 104.189 162.771 104.594C162.888 104.837 162.946 105.044 162.946 105.215C162.946 106.015 161.988 106.415 160.072 106.415C159.407 106.415 158.813 106.303 158.291 106.078C157.779 105.844 157.378 105.538 157.091 105.161C156.524 104.432 156.241 103.618 156.241 102.719C156.241 101.585 156.605 100.681 157.333 100.007C158.071 99.3232 158.988 98.9814 160.086 98.9814C161.336 98.9814 162.254 99.4221 162.838 100.304C163.144 100.771 163.297 101.284 163.297 101.842ZM160.45 102.233C160.792 102.233 160.963 102.089 160.963 101.801C160.963 101.594 160.882 101.428 160.72 101.302C160.567 101.176 160.342 101.113 160.045 101.113C159.758 101.113 159.47 101.235 159.182 101.477C158.894 101.711 158.75 101.963 158.75 102.233H160.45ZM174.133 96.3505C174.34 96.3505 174.493 96.3595 174.592 96.3774C174.7 96.3864 174.817 96.4269 174.943 96.4989C175.078 96.5708 175.172 96.6923 175.226 96.8631C175.28 97.034 175.307 97.2634 175.307 97.5512C175.307 97.8391 175.28 98.0684 175.226 98.2393C175.172 98.4102 175.078 98.5316 174.943 98.6036C174.808 98.6666 174.686 98.707 174.578 98.725C174.479 98.734 174.322 98.7385 174.106 98.7385H169.978V100.101H172.636C172.851 100.101 173.009 100.11 173.108 100.128C173.216 100.137 173.337 100.178 173.472 100.25C173.706 100.385 173.823 100.74 173.823 101.315C173.823 101.945 173.652 102.318 173.31 102.435C173.166 102.48 172.937 102.503 172.622 102.503H169.978V105.053C169.978 105.269 169.969 105.426 169.951 105.525C169.942 105.624 169.901 105.741 169.829 105.876C169.703 106.119 169.353 106.24 168.777 106.24C168.147 106.24 167.779 106.069 167.671 105.727C167.617 105.583 167.59 105.354 167.59 105.039V97.5377C167.59 97.079 167.675 96.7687 167.846 96.6068C168.017 96.4359 168.341 96.3505 168.817 96.3505H174.133ZM175.917 100.317C175.917 100.11 175.921 99.9573 175.93 99.8583C175.948 99.7504 175.989 99.629 176.052 99.4941C176.177 99.2602 176.528 99.1433 177.104 99.1433C177.536 99.1433 177.841 99.2197 178.021 99.3726C178.174 99.4986 178.255 99.6919 178.264 99.9528C178.273 100.043 178.278 100.173 178.278 100.344V105.066C178.278 105.273 178.269 105.43 178.251 105.538C178.242 105.637 178.201 105.754 178.129 105.889C178.012 106.123 177.666 106.24 177.09 106.24C176.524 106.24 176.177 106.119 176.052 105.876C175.989 105.741 175.948 105.624 175.93 105.525C175.921 105.426 175.917 105.269 175.917 105.053V100.317ZM178.129 97.8211C178.066 97.947 177.949 98.0369 177.779 98.0909C177.608 98.1449 177.378 98.1719 177.09 98.1719C176.812 98.1719 176.587 98.1449 176.416 98.0909C176.245 98.0369 176.124 97.9425 176.052 97.8076C175.989 97.6727 175.948 97.5557 175.93 97.4568C175.921 97.3489 175.917 97.1915 175.917 96.9846C175.917 96.7777 175.921 96.6248 175.93 96.5259C175.948 96.4179 175.989 96.301 176.052 96.1751C176.177 95.9322 176.528 95.8108 177.104 95.8108C177.671 95.8108 178.012 95.9322 178.129 96.1751C178.201 96.31 178.242 96.4314 178.251 96.5393C178.269 96.6383 178.278 96.7912 178.278 96.9981C178.278 97.2049 178.269 97.3623 178.251 97.4703C178.242 97.5692 178.201 97.6862 178.129 97.8211ZM184.186 99.2107C184.356 99.2647 184.496 99.3591 184.604 99.4941C184.721 99.62 184.779 99.8269 184.779 100.115C184.779 100.403 184.694 100.717 184.523 101.059C184.352 101.401 184.105 101.572 183.781 101.572C183.619 101.572 183.461 101.536 183.309 101.464C183.165 101.392 182.971 101.356 182.728 101.356C182.486 101.356 182.256 101.441 182.04 101.612C181.833 101.783 181.73 101.99 181.73 102.233V105.066C181.73 105.273 181.721 105.43 181.703 105.538C181.694 105.637 181.654 105.754 181.582 105.889C181.447 106.123 181.096 106.24 180.529 106.24C180.098 106.24 179.787 106.164 179.598 106.011C179.454 105.885 179.373 105.691 179.355 105.43C179.355 105.341 179.355 105.21 179.355 105.039V100.304C179.355 100.097 179.36 99.9438 179.369 99.8448C179.387 99.7369 179.427 99.62 179.49 99.4941C179.616 99.2512 179.967 99.1298 180.543 99.1298C181.082 99.1298 181.42 99.2332 181.555 99.4401C181.654 99.584 181.703 99.7324 181.703 99.8853C181.748 99.8224 181.811 99.7459 181.892 99.656C181.982 99.566 182.166 99.4446 182.445 99.2917C182.724 99.1388 182.967 99.0623 183.174 99.0623C183.39 99.0623 183.569 99.0758 183.713 99.1028C183.857 99.1208 184.015 99.1568 184.186 99.2107ZM185.312 105.606C185.141 105.498 185.056 105.327 185.056 105.093C185.056 104.859 185.227 104.504 185.568 104.027C185.667 103.874 185.825 103.798 186.041 103.798C186.266 103.798 186.567 103.91 186.945 104.135C187.322 104.351 187.664 104.459 187.97 104.459C188.519 104.459 188.793 104.351 188.793 104.135C188.793 103.964 188.492 103.838 187.889 103.757C187.322 103.677 186.76 103.465 186.203 103.123C185.942 102.961 185.726 102.71 185.555 102.368C185.384 102.017 185.299 101.603 185.299 101.127C185.299 99.7054 186.275 98.9949 188.226 98.9949C188.865 98.9949 189.522 99.1478 190.196 99.4536C190.511 99.5975 190.668 99.7774 190.668 99.9933C190.668 100.209 190.569 100.474 190.372 100.789C190.174 101.104 189.971 101.261 189.764 101.261C189.656 101.261 189.454 101.194 189.157 101.059C188.869 100.924 188.555 100.857 188.213 100.857C187.682 100.857 187.417 100.956 187.417 101.154C187.417 101.423 187.723 101.599 188.334 101.68C188.928 101.743 189.504 101.914 190.061 102.192C190.322 102.318 190.538 102.539 190.709 102.854C190.889 103.159 190.979 103.546 190.979 104.014C190.979 104.482 190.889 104.882 190.709 105.215C190.538 105.538 190.295 105.781 189.98 105.943C189.405 106.222 188.681 106.361 187.808 106.361C186.945 106.361 186.113 106.11 185.312 105.606ZM195.777 101.518L194.9 101.464V103.326C194.9 103.569 194.936 103.744 195.008 103.852C195.089 103.96 195.233 104.014 195.44 104.014C195.655 104.014 195.817 104.023 195.925 104.041C196.042 104.05 196.164 104.09 196.29 104.162C196.496 104.279 196.6 104.58 196.6 105.066C196.6 105.633 196.474 105.979 196.222 106.105C196.087 106.168 195.966 106.209 195.858 106.226C195.759 106.235 195.61 106.24 195.413 106.24C194.477 106.24 193.767 106.029 193.281 105.606C192.795 105.183 192.552 104.468 192.552 103.461V101.464C192.381 101.491 192.197 101.504 191.999 101.504C191.801 101.504 191.635 101.428 191.5 101.275C191.374 101.122 191.311 100.861 191.311 100.492C191.311 100.124 191.334 99.8583 191.379 99.6964C191.423 99.5255 191.486 99.4041 191.567 99.3322C191.711 99.2152 191.891 99.1568 192.107 99.1568L192.552 99.2107V97.8211C192.552 97.6142 192.557 97.4613 192.566 97.3623C192.584 97.2634 192.629 97.1555 192.701 97.0385C192.818 96.8137 193.164 96.7012 193.74 96.7012C194.351 96.7012 194.715 96.8676 194.832 97.2004C194.877 97.3444 194.9 97.5737 194.9 97.8885V99.2107C195.296 99.1748 195.592 99.1568 195.79 99.1568C195.997 99.1568 196.15 99.1658 196.249 99.1837C196.357 99.1927 196.478 99.2332 196.613 99.3052C196.847 99.4221 196.964 99.7684 196.964 100.344C196.964 100.911 196.843 101.257 196.6 101.383C196.465 101.446 196.344 101.486 196.236 101.504C196.137 101.513 195.984 101.518 195.777 101.518ZM201.689 104.365H198.478C197.974 104.365 197.673 104.212 197.574 103.906C197.529 103.744 197.507 103.537 197.507 103.285C197.507 103.033 197.534 102.831 197.588 102.678C197.642 102.525 197.727 102.417 197.844 102.354C198.006 102.273 198.222 102.233 198.492 102.233H201.703C202.206 102.233 202.503 102.381 202.593 102.678C202.647 102.84 202.674 103.047 202.674 103.299C202.674 103.551 202.647 103.757 202.593 103.919C202.548 104.072 202.472 104.18 202.364 104.243C202.202 104.324 201.977 104.365 201.689 104.365ZM204.747 96.337L207.243 96.3505C208.547 96.3505 209.694 96.8227 210.683 97.7671C211.673 98.7025 212.167 99.8583 212.167 101.235C212.167 102.602 211.682 103.775 210.71 104.756C209.748 105.736 208.578 106.226 207.202 106.226H204.733C204.185 106.226 203.843 106.114 203.708 105.889C203.6 105.7 203.546 105.412 203.546 105.026V97.5243C203.546 97.3084 203.55 97.151 203.559 97.052C203.577 96.9531 203.622 96.8362 203.694 96.7012C203.82 96.4584 204.171 96.337 204.747 96.337ZM207.243 103.838C207.89 103.838 208.475 103.6 208.997 103.123C209.518 102.638 209.779 102.031 209.779 101.302C209.779 100.573 209.523 99.9663 209.01 99.4806C208.506 98.9859 207.913 98.7385 207.229 98.7385H205.934V103.838H207.243ZM217.66 99.8853C217.714 99.3816 218.069 99.1298 218.726 99.1298C219.076 99.1298 219.337 99.1568 219.508 99.2107C219.679 99.2647 219.796 99.3591 219.859 99.4941C219.931 99.629 219.971 99.7504 219.98 99.8583C219.998 99.9573 220.007 100.11 220.007 100.317V105.039C220.007 105.246 219.998 105.403 219.98 105.511C219.971 105.61 219.935 105.727 219.872 105.862C219.747 106.096 219.436 106.213 218.942 106.213C218.456 106.213 218.128 106.155 217.957 106.038C217.795 105.912 217.7 105.732 217.673 105.498C217.341 105.975 216.783 106.213 216 106.213C215.227 106.213 214.507 105.858 213.842 105.147C213.176 104.437 212.843 103.614 212.843 102.678C212.843 101.734 213.176 100.911 213.842 100.209C214.516 99.4986 215.254 99.1433 216.054 99.1433C216.36 99.1433 216.639 99.1972 216.891 99.3052C217.143 99.4131 217.318 99.5165 217.417 99.6155C217.516 99.7054 217.597 99.7954 217.66 99.8853ZM215.204 102.692C215.204 102.988 215.321 103.258 215.555 103.501C215.789 103.735 216.072 103.852 216.405 103.852C216.738 103.852 217.012 103.731 217.228 103.488C217.453 103.245 217.565 102.979 217.565 102.692C217.565 102.395 217.457 102.12 217.242 101.869C217.035 101.617 216.751 101.491 216.392 101.491C216.041 101.491 215.753 101.617 215.528 101.869C215.312 102.12 215.204 102.395 215.204 102.692ZM225.036 99.1298C225.935 99.1298 226.682 99.4761 227.275 100.169C227.878 100.852 228.179 101.689 228.179 102.678V105.053C228.179 105.26 228.17 105.417 228.152 105.525C228.143 105.624 228.107 105.736 228.045 105.862C227.919 106.105 227.568 106.226 226.992 106.226C226.354 106.226 225.985 106.06 225.886 105.727C225.832 105.574 225.805 105.345 225.805 105.039V102.665C225.805 102.296 225.697 102.008 225.481 101.801C225.274 101.594 224.991 101.491 224.631 101.491C224.28 101.491 223.992 101.599 223.768 101.815C223.552 102.031 223.444 102.314 223.444 102.665V105.053C223.444 105.26 223.435 105.417 223.417 105.525C223.408 105.624 223.367 105.736 223.295 105.862C223.178 106.105 222.832 106.226 222.257 106.226C221.69 106.226 221.344 106.105 221.218 105.862C221.155 105.727 221.114 105.61 221.096 105.511C221.087 105.403 221.083 105.246 221.083 105.039V100.263C221.083 100.065 221.087 99.9168 221.096 99.8179C221.114 99.7099 221.159 99.593 221.231 99.4671C221.357 99.2422 221.703 99.1298 222.27 99.1298C222.819 99.1298 223.156 99.2332 223.282 99.4401C223.372 99.593 223.417 99.7774 223.417 99.9933C223.453 99.9303 223.534 99.8404 223.66 99.7234C223.786 99.6065 223.907 99.5121 224.024 99.4401C224.33 99.2332 224.667 99.1298 225.036 99.1298ZM231.491 102.692C231.491 103.069 231.617 103.366 231.869 103.582C232.121 103.789 232.386 103.892 232.665 103.892C232.953 103.892 233.218 103.811 233.461 103.65C233.713 103.479 233.915 103.393 234.068 103.393C234.338 103.393 234.666 103.632 235.053 104.108C235.26 104.369 235.363 104.603 235.363 104.81C235.363 105.152 235.116 105.471 234.621 105.768C234.108 106.128 233.479 106.307 232.732 106.307C231.896 106.307 231.091 106.006 230.317 105.403C229.948 105.116 229.647 104.733 229.413 104.257C229.179 103.771 229.062 103.24 229.062 102.665C229.062 102.08 229.179 101.554 229.413 101.086C229.647 100.609 229.948 100.227 230.317 99.9393C231.064 99.3457 231.86 99.0488 232.705 99.0488C233.047 99.0488 233.38 99.0983 233.704 99.1972C234.027 99.2872 234.266 99.3771 234.419 99.4671L234.635 99.602C234.796 99.7099 234.922 99.7954 235.012 99.8583C235.246 100.038 235.363 100.245 235.363 100.479C235.363 100.704 235.269 100.96 235.08 101.248C234.756 101.743 234.446 101.99 234.149 101.99C233.978 101.99 233.735 101.891 233.42 101.693C233.258 101.54 233.025 101.464 232.719 101.464C232.422 101.464 232.143 101.572 231.882 101.788C231.621 102.004 231.491 102.305 231.491 102.692ZM242.891 101.842C242.891 102.39 242.752 102.8 242.473 103.069C242.203 103.33 241.902 103.461 241.569 103.461H238.371C238.371 103.713 238.52 103.924 238.816 104.095C239.113 104.266 239.41 104.351 239.707 104.351C240.229 104.351 240.638 104.297 240.935 104.189L241.083 104.135C241.299 104.036 241.479 103.987 241.623 103.987C241.911 103.987 242.158 104.189 242.365 104.594C242.482 104.837 242.54 105.044 242.54 105.215C242.54 106.015 241.582 106.415 239.666 106.415C239.001 106.415 238.407 106.303 237.885 106.078C237.373 105.844 236.973 105.538 236.685 105.161C236.118 104.432 235.835 103.618 235.835 102.719C235.835 101.585 236.199 100.681 236.928 100.007C237.665 99.3232 238.583 98.9814 239.68 98.9814C240.93 98.9814 241.848 99.4221 242.432 100.304C242.738 100.771 242.891 101.284 242.891 101.842ZM240.044 102.233C240.386 102.233 240.557 102.089 240.557 101.801C240.557 101.594 240.476 101.428 240.314 101.302C240.161 101.176 239.936 101.113 239.639 101.113C239.352 101.113 239.064 101.235 238.776 101.477C238.488 101.711 238.344 101.963 238.344 102.233H240.044Z" fill="white"/>
<defs>
<clipPath id="clip0_772_5933">
<rect width="278.897" height="73.24" fill="white" transform="translate(10.0513 10)"/>
</clipPath>
</defs>
</svg>
