<svg width="282" height="102" viewBox="0 0 282 102" fill="none" xmlns="http://www.w3.org/2000/svg">
<path d="M0 8C0 3.58172 3.58172 0 8 0H282V102H7.99999C3.58172 102 0 98.4183 0 94V8Z" fill="#DC2626"/>
<g clip-path="url(#clip0_639_2024)">
<path d="M57.6196 77.8675C57.833 78.325 58.1728 78.7119 58.599 78.9826C59.0252 79.2532 59.5199 79.3962 60.0247 79.3948C60.1012 79.3948 60.1781 79.3915 60.2554 79.385C60.798 79.3426 61.3143 79.134 61.7341 78.7877C62.1539 78.4414 62.4567 77.9741 62.6015 77.4495L57.6196 77.8675ZM57.6196 77.8675L48.5981 58.8222L57.6196 77.8675ZM73.5318 33.4645L73.5329 33.4656C73.8571 33.7851 74.089 34.1863 74.2039 34.6267C74.3188 35.0671 74.3126 35.5304 74.1859 35.9676L74.1857 35.9684L62.4945 77.4193L62.4943 77.4199C62.3556 77.9225 62.0654 78.3701 61.6633 78.7019C61.2611 79.0336 60.7665 79.2335 60.2468 79.2741L60.2461 79.2742C60.1718 79.2804 60.098 79.2835 60.0247 79.2835L60.0244 79.2835C59.5408 79.2849 59.0669 79.1479 58.6586 78.8887C58.2504 78.6294 57.9248 78.2588 57.7204 77.8205L57.7201 77.8199L48.6986 58.7746L48.6986 58.7745C48.5994 58.5658 48.4313 58.3978 48.2227 58.2986L48.2225 58.2985L29.1775 49.2773C28.7068 49.0543 28.3153 48.693 28.0554 48.2416C27.7956 47.7902 27.6797 47.2703 27.7232 46.7513C27.7668 46.2323 27.9677 45.7389 28.2991 45.3371C28.6306 44.9354 29.0768 44.6443 29.578 44.5029L71.029 32.8117L71.0298 32.8115C71.4669 32.6847 71.9303 32.6785 72.3707 32.7934C72.8111 32.9083 73.2123 33.1402 73.5318 33.4645ZM50.124 57.9744L50.0662 58.0322L50.104 58.1046L50.1068 58.1099L59.1276 77.1535C59.2148 77.3377 59.3562 77.4908 59.5329 77.5925C59.7095 77.6942 59.913 77.7395 60.116 77.7224C60.3191 77.7054 60.5122 77.6267 60.6694 77.497C60.8266 77.3673 60.9405 77.1927 60.9958 76.9966L72.6866 35.5468C72.6867 35.5466 72.6868 35.5464 72.6868 35.5462C72.7371 35.3749 72.7398 35.1932 72.6948 35.0204C72.6497 34.8478 72.5586 34.6907 72.4312 34.5658C72.2471 34.3799 71.9973 34.2737 71.7357 34.2701L71.7338 34.2701C71.6383 34.2705 71.5433 34.2841 71.4515 34.3105C71.4514 34.3105 71.4513 34.3105 71.4512 34.3106L30.0008 46.0016C29.8047 46.0569 29.6301 46.1708 29.5004 46.328C29.3706 46.4852 29.292 46.6782 29.2749 46.8813C29.2579 47.0844 29.3032 47.2879 29.4049 47.4645C29.5066 47.6412 29.6597 47.7826 29.8439 47.8698L29.8439 47.8698L48.8869 56.8902L48.8923 56.893L48.9649 56.9314L49.023 56.8734L58.6474 47.249C58.7934 47.103 58.9914 47.021 59.1979 47.021C59.4044 47.021 59.6024 47.103 59.7484 47.249C59.8944 47.395 59.9764 47.593 59.9764 47.7995C59.9764 48.006 59.8944 48.204 59.7484 48.35L50.124 57.9744Z" fill="white" stroke="white" stroke-width="0.222462"/>
<path d="M59.1039 47.9057V30.5002M59.1039 30.5002V20.2136C59.1039 20.0956 59.0083 20 58.8903 20H44.4259C44.2349 20 44.1399 20.2315 44.2759 20.3656L49.0206 25.0462C49.1048 25.1293 49.1055 25.2649 49.0222 25.3488L44.2669 30.1362C44.1331 30.2709 44.2285 30.5002 44.4184 30.5002H59.1039Z" stroke="white" stroke-width="1.7797"/>
<path d="M94.233 66.6868C93.609 65.9188 93.297 65.2348 93.297 64.6348C93.297 64.0108 93.813 63.1948 94.845 62.1868C95.445 61.6108 96.081 61.3228 96.753 61.3228C97.425 61.3228 98.361 61.9228 99.561 63.1228C99.897 63.5308 100.377 63.9268 101.001 64.3108C101.625 64.6708 102.201 64.8508 102.729 64.8508C104.961 64.8508 106.077 63.9388 106.077 62.1148C106.077 61.5628 105.765 61.1068 105.141 60.7468C104.541 60.3628 103.785 60.0868 102.873 59.9188C101.961 59.7508 100.977 59.4868 99.921 59.1268C98.865 58.7428 97.881 58.2988 96.969 57.7948C96.057 57.2908 95.289 56.4988 94.665 55.4188C94.065 54.3148 93.765 52.9948 93.765 51.4588C93.765 49.3468 94.545 47.5108 96.105 45.9508C97.689 44.3668 99.837 43.5748 102.549 43.5748C103.989 43.5748 105.297 43.7668 106.473 44.1508C107.673 44.5108 108.501 44.8828 108.957 45.2668L109.857 45.9508C110.601 46.6468 110.973 47.2348 110.973 47.7148C110.973 48.1948 110.685 48.8548 110.109 49.6948C109.293 50.8948 108.453 51.4948 107.589 51.4948C107.085 51.4948 106.461 51.2548 105.717 50.7748C105.645 50.7268 105.501 50.6068 105.285 50.4148C105.093 50.2228 104.913 50.0668 104.745 49.9468C104.241 49.6348 103.593 49.4788 102.801 49.4788C102.033 49.4788 101.385 49.6708 100.857 50.0548C100.353 50.4148 100.101 50.9308 100.101 51.6028C100.101 52.2508 100.401 52.7788 101.001 53.1868C101.625 53.5948 102.393 53.8708 103.305 54.0148C104.217 54.1588 105.213 54.3868 106.293 54.6988C107.373 54.9868 108.369 55.3468 109.281 55.7788C110.193 56.2108 110.949 56.9668 111.549 58.0468C112.173 59.1028 112.485 60.4108 112.485 61.9708C112.485 63.5308 112.173 64.9108 111.549 66.1108C110.925 67.2868 110.109 68.1988 109.101 68.8468C107.157 70.1188 105.081 70.7548 102.873 70.7548C101.745 70.7548 100.677 70.6228 99.669 70.3588C98.661 70.0708 97.845 69.7228 97.221 69.3148C95.949 68.5468 95.061 67.8028 94.557 67.0828L94.233 66.6868ZM127.209 43.6828C130.761 43.6828 133.845 44.9668 136.461 47.5348C139.077 50.1028 140.385 53.2948 140.385 57.1108C140.385 60.9028 139.137 64.1428 136.641 66.8308C134.145 69.4948 131.073 70.8268 127.425 70.8268C123.777 70.8268 120.669 69.5068 118.101 66.8668C115.557 64.2268 114.285 61.0828 114.285 57.4348C114.285 55.4428 114.645 53.5828 115.365 51.8548C116.085 50.1028 117.045 48.6388 118.245 47.4628C119.445 46.2868 120.825 45.3628 122.385 44.6908C123.945 44.0188 125.553 43.6828 127.209 43.6828ZM120.657 57.2548C120.657 59.3908 121.341 61.1308 122.709 62.4748C124.101 63.7948 125.649 64.4548 127.353 64.4548C129.057 64.4548 130.593 63.8068 131.961 62.5108C133.329 61.2148 134.013 59.4748 134.013 57.2908C134.013 55.1068 133.317 53.3548 131.925 52.0348C130.557 50.7148 129.021 50.0548 127.317 50.0548C125.613 50.0548 124.077 50.7268 122.709 52.0708C121.341 53.3908 120.657 55.1188 120.657 57.2548ZM155.123 43.6828C158.675 43.6828 161.759 44.9668 164.375 47.5348C166.991 50.1028 168.299 53.2948 168.299 57.1108C168.299 60.9028 167.051 64.1428 164.555 66.8308C162.059 69.4948 158.987 70.8268 155.339 70.8268C151.691 70.8268 148.583 69.5068 146.015 66.8668C143.471 64.2268 142.199 61.0828 142.199 57.4348C142.199 55.4428 142.559 53.5828 143.279 51.8548C143.999 50.1028 144.959 48.6388 146.159 47.4628C147.359 46.2868 148.739 45.3628 150.299 44.6908C151.859 44.0188 153.467 43.6828 155.123 43.6828ZM148.571 57.2548C148.571 59.3908 149.255 61.1308 150.623 62.4748C152.015 63.7948 153.563 64.4548 155.267 64.4548C156.971 64.4548 158.507 63.8068 159.875 62.5108C161.243 61.2148 161.927 59.4748 161.927 57.2908C161.927 55.1068 161.231 53.3548 159.839 52.0348C158.471 50.7148 156.935 50.0548 155.231 50.0548C153.527 50.0548 151.991 50.7268 150.623 52.0708C149.255 53.3908 148.571 55.1188 148.571 57.2548ZM198.697 45.0148C198.889 45.3748 198.997 45.6988 199.021 45.9868C199.069 46.2748 199.093 46.6948 199.093 47.2468V67.2268C199.093 68.8828 198.637 69.8548 197.725 70.1428C197.269 70.2868 196.693 70.3588 195.997 70.3588C195.301 70.3588 194.749 70.2988 194.341 70.1788C193.933 70.0588 193.621 69.9148 193.405 69.7468C193.189 69.5788 193.021 69.3388 192.901 69.0268C192.781 68.6188 192.721 67.9948 192.721 67.1548V55.0948C192.121 55.8388 191.245 57.0268 190.093 58.6588C188.941 60.2668 188.209 61.2748 187.897 61.6828C187.585 62.0908 187.369 62.3788 187.249 62.5468C187.129 62.6908 186.829 62.9068 186.349 63.1948C185.893 63.4588 185.389 63.5908 184.837 63.5908C184.309 63.5908 183.817 63.4708 183.361 63.2308C182.929 62.9668 182.617 62.7148 182.425 62.4748L182.137 62.0788C181.657 61.4788 180.709 60.2068 179.293 58.2628C177.877 56.2948 177.109 55.2388 176.989 55.0948V67.2268C176.989 67.7788 176.965 68.1988 176.917 68.4868C176.893 68.7508 176.785 69.0508 176.593 69.3868C176.233 70.0348 175.297 70.3588 173.785 70.3588C172.321 70.3588 171.409 70.0348 171.049 69.3868C170.857 69.0508 170.737 68.7388 170.689 68.4508C170.665 68.1628 170.653 67.7308 170.653 67.1548V47.1748C170.653 46.6228 170.665 46.2148 170.689 45.9508C170.737 45.6628 170.857 45.3388 171.049 44.9788C171.409 44.3548 172.345 44.0428 173.857 44.0428C174.505 44.0428 175.057 44.1268 175.513 44.2948C175.993 44.4388 176.305 44.5948 176.449 44.7628L176.665 44.9788L184.837 55.7068C188.917 50.3068 191.641 46.7428 193.009 45.0148C193.417 44.3668 194.377 44.0428 195.889 44.0428C197.425 44.0428 198.361 44.3668 198.697 45.0148ZM215.73 54.4828H222.066C223.362 54.5308 224.154 54.8668 224.442 55.4908C224.682 55.9468 224.802 56.6188 224.802 57.5068V65.4268C224.802 66.1948 224.466 66.9268 223.794 67.6228C221.778 69.7108 218.754 70.7548 214.722 70.7548C211.146 70.7548 208.038 69.4108 205.398 66.7228C202.758 64.0108 201.438 60.7468 201.438 56.9308C201.438 53.1148 202.782 49.9348 205.47 47.3908C208.158 44.8228 211.326 43.5388 214.974 43.5388C217.806 43.5388 220.482 44.4748 223.002 46.3468C223.65 46.8268 223.974 47.3668 223.974 47.9668C223.974 48.5428 223.698 49.2148 223.146 49.9828C222.21 51.2548 221.358 51.8908 220.59 51.8908C220.134 51.8908 219.402 51.5668 218.394 50.9188C217.386 50.2468 216.186 49.9108 214.794 49.9108C212.97 49.9108 211.35 50.5588 209.934 51.8548C208.518 53.1268 207.81 54.8068 207.81 56.8948C207.81 58.9588 208.53 60.7228 209.97 62.1868C211.41 63.6268 213.042 64.3468 214.866 64.3468C216.186 64.3468 217.374 64.1308 218.43 63.6988V59.7748H215.586C214.842 59.7748 214.314 59.6788 214.002 59.4868C213.69 59.2948 213.486 59.0188 213.39 58.6588C213.294 58.2748 213.246 57.7708 213.246 57.1468C213.246 56.4988 213.294 55.9828 213.39 55.5988C213.51 55.2148 213.714 54.9508 214.002 54.8068C214.434 54.5908 215.01 54.4828 215.73 54.4828ZM242.905 45.8788L252.625 65.9668C253.033 66.7828 253.237 67.3948 253.237 67.8028C253.237 68.6668 252.541 69.4468 251.149 70.1428C250.333 70.5508 249.685 70.7548 249.205 70.7548C248.749 70.7548 248.365 70.6468 248.053 70.4308C247.765 70.2148 247.549 69.9868 247.405 69.7468C247.285 69.5068 247.105 69.1468 246.865 68.6668L244.993 64.7788H235.021L233.149 68.6668C232.909 69.1468 232.717 69.4948 232.573 69.7108C232.453 69.9268 232.237 70.1548 231.925 70.3948C231.637 70.6108 231.253 70.7188 230.773 70.7188C230.317 70.7188 229.681 70.5148 228.865 70.1068C227.473 69.4348 226.777 68.6668 226.777 67.8028C226.777 67.3948 226.981 66.7828 227.389 65.9668L237.109 45.8428C237.373 45.2908 237.769 44.8468 238.297 44.5108C238.849 44.1748 239.425 44.0068 240.025 44.0068C241.321 44.0068 242.281 44.6308 242.905 45.8788ZM239.989 54.5188L237.613 59.4508H242.401L239.989 54.5188Z" fill="white"/>
</g>
<defs>
<clipPath id="clip0_639_2024">
<rect width="226.794" height="59.3947" fill="white" transform="translate(27.603 20)"/>
</clipPath>
</defs>
</svg>
