<svg width="64" height="84" viewBox="0 0 64 84" fill="none" xmlns="http://www.w3.org/2000/svg">
<path d="M62.925 20.3087C62.4688 19.8457 61.896 19.5146 61.2671 19.3505C60.6382 19.1864 59.9766 19.1953 59.3523 19.3763L2.65992 35.3664C1.94451 35.5682 1.30774 35.9835 0.834712 36.5569C0.361683 37.1303 0.0749326 37.8344 0.0127858 38.5751C-0.0493609 39.3159 0.116057 40.0579 0.486931 40.7021C0.857804 41.3463 1.41646 41.8619 2.08825 42.1801L28.1362 54.5185C28.3899 54.6391 28.5943 54.8435 28.715 55.0973L41.0536 81.1455C41.3454 81.7712 41.8103 82.3004 42.3931 82.6705C42.976 83.0407 43.6526 83.2363 44.3431 83.2343C44.4477 83.2343 44.5529 83.2299 44.6587 83.2209C45.4007 83.1629 46.1068 82.8776 46.681 82.404C47.2551 81.9303 47.6694 81.2913 47.8674 80.5738L63.8574 23.8814C64.0384 23.2571 64.0473 22.5956 63.8831 21.9667C63.719 21.3378 63.388 20.7649 62.925 20.3087ZM61.5148 23.2206L45.5248 79.913C45.4575 80.1515 45.3191 80.3637 45.128 80.5214C44.9369 80.6791 44.7022 80.7747 44.4553 80.7954C44.2084 80.8162 43.961 80.7611 43.7463 80.6375C43.5315 80.5139 43.3596 80.3277 43.2535 80.1037L30.9146 54.0552L30.9094 54.0453L44.0727 40.882C44.3009 40.6538 44.4291 40.3442 44.4291 40.0215C44.4291 39.6988 44.3009 39.3892 44.0727 39.161C43.8445 38.9328 43.535 38.8046 43.2122 38.8046C42.8895 38.8046 42.5799 38.9328 42.3517 39.161L29.1884 52.3242L29.1782 52.3188L3.12998 39.9802C2.90607 39.8741 2.71986 39.7022 2.59626 39.4875C2.47266 39.2727 2.41754 39.0254 2.43828 38.7785C2.45902 38.5315 2.55462 38.2969 2.71232 38.1057C2.87001 37.9146 3.08228 37.7762 3.32076 37.7089L60.0131 21.7189C60.1253 21.6866 60.2414 21.67 60.3581 21.6696C60.6765 21.6738 60.9803 21.8032 61.2041 22.0297C61.3591 22.1813 61.4699 22.3722 61.5247 22.582C61.5794 22.7918 61.576 23.0126 61.5148 23.2206Z" fill="#DC2626"/>
<path d="M43.0835 40.1664V16.361M43.0835 16.361V2.29197C43.0835 2.13065 42.9527 1.99988 42.7914 1.99988H23.0084C22.7472 1.99988 22.6173 2.31648 22.8033 2.49991L29.2926 8.90158C29.4078 9.01515 29.4087 9.20064 29.2947 9.31537L22.791 15.8631C22.6079 16.0474 22.7385 16.361 22.9982 16.361H43.0835Z" stroke="#DC2626" stroke-width="2.43409"/>
</svg>
