<svg width="303" height="101" viewBox="0 0 303 101" fill="none" xmlns="http://www.w3.org/2000/svg">
<path d="M5.93348 22.0076H29.7687V24.6176H5.93348V22.0076ZM1.98013 33.4838H33.415V36.1705H1.98013V33.4838ZM16.0279 23.1207H19.2136V34.5585H16.0279V23.1207ZM5.93348 8.57391H29.4232V11.1839H9.11918V23.1591H5.93348V8.57391ZM51.3747 23.5045H54.5221V29.5305H51.3747V23.5045ZM52.9484 6.4629C60.4329 6.4629 65.1539 8.88096 65.1539 12.9878C65.1539 17.0947 60.4329 19.4744 52.9484 19.4744C45.4255 19.4744 40.7429 17.0947 40.7429 12.9878C40.7429 8.88096 45.4255 6.4629 52.9484 6.4629ZM52.9484 8.95773C47.4214 8.95773 44.0054 10.4546 44.0054 12.9878C44.0054 15.521 47.4214 16.9796 52.9484 16.9796C58.437 16.9796 61.8914 15.521 61.8914 12.9878C61.8914 10.4546 58.437 8.95773 52.9484 8.95773ZM41.0884 28.6093H64.77V40.0471H41.0884V28.6093ZM61.6611 31.1809H44.2357V37.4755H61.6611V31.1809ZM37.2502 22.1227H68.6082V24.7327H37.2502V22.1227ZM97.7755 5.77202H100.961V40.5461H97.7755V5.77202ZM82.653 8.45876C87.7962 8.45876 91.4809 13.1797 91.4809 20.5491C91.4809 27.9568 87.7962 32.6778 82.653 32.6778C77.5482 32.6778 73.8636 27.9568 73.8636 20.5491C73.8636 13.1797 77.5482 8.45876 82.653 8.45876ZM82.653 11.3374C79.2754 11.3374 76.8958 14.9453 76.8958 20.5491C76.8958 26.1912 79.2754 29.8759 82.653 29.8759C86.069 29.8759 88.4103 26.1912 88.4103 20.5491C88.4103 14.9453 86.069 11.3374 82.653 11.3374ZM142.869 5.8104H146.093V23.7732H142.869V5.8104ZM123.447 25.462H146.093V33.8292H126.671V39.0492H123.563V31.4496H142.907V27.9952H123.447V25.462ZM123.563 37.5907H147.359V40.1239H123.563V37.5907ZM119.149 8.1517H137.764V10.6849H119.149V8.1517ZM118.534 22.6217L118.189 19.9734C124.369 19.9734 132.659 19.8198 139.414 18.9754L139.606 21.3167C132.697 22.353 124.637 22.5833 118.534 22.6217ZM122.565 9.30317H125.635V21.1248H122.565V9.30317ZM131.239 9.30317H134.348V21.1248H131.239V9.30317ZM160.598 23.658H163.745V34.0595H160.598V23.658ZM173.418 23.658H176.603V34.0595H173.418V23.658ZM152.922 33.4454H184.357V36.0938H152.922V33.4454ZM168.582 7.99818C175.913 7.99818 181.171 11.4909 181.171 16.9412C181.171 22.353 175.913 25.8458 168.582 25.8458C161.212 25.8458 155.954 22.353 155.954 16.9412C155.954 11.4909 161.212 7.99818 168.582 7.99818ZM168.582 10.5314C163.016 10.5314 159.024 13.0646 159.024 16.9412C159.024 20.7794 163.016 23.3126 168.582 23.3126C174.147 23.3126 178.1 20.7794 178.1 16.9412C178.1 13.0646 174.147 10.5314 168.582 10.5314ZM211.95 5.69526H215.136V24.8479H211.95V5.69526ZM213.793 14.0241H220.279V16.7109H213.793V14.0241ZM193.105 26.6134H215.136V34.3666H196.329V38.5886H193.181V32.0637H212.027V29.0315H193.105V26.6134ZM193.181 37.6674H216.403V40.1239H193.181V37.6674ZM188.307 8.91934H208.803V11.4142H188.307V8.91934ZM198.555 12.9495C203.545 12.9495 206.845 15.1372 206.845 18.6684C206.845 22.1611 203.545 24.3105 198.555 24.3105C193.488 24.3105 190.226 22.1611 190.226 18.6684C190.226 15.1372 193.488 12.9495 198.555 12.9495ZM198.555 15.2908C195.331 15.2908 193.258 16.5957 193.258 18.6684C193.258 20.7026 195.331 22.0076 198.555 22.0076C201.741 22.0076 203.813 20.7026 203.813 18.6684C203.813 16.5957 201.741 15.2908 198.555 15.2908ZM196.943 5.42659H200.129V10.6465H196.943V5.42659ZM253.128 6.50128H256.122V30.49H253.128V6.50128ZM254.932 15.9049H261.342V18.5148H254.932V15.9049ZM234.283 22.5449H235.626C236.97 22.5449 239.234 22.5449 241.844 21.8925L242.19 24.5024C239.311 25.1549 237.123 25.1933 235.626 25.1933H234.283V22.5449ZM234.283 9.18802H241.499V11.7596H237.2V23.3893H234.283V9.18802ZM243.264 22.5449H244.646C246.412 22.5449 248.676 22.5066 251.363 21.8541L251.67 24.5024C248.791 25.1549 246.527 25.1933 244.646 25.1933H243.264V22.5449ZM243.264 9.18802H250.825V11.7596H246.181V23.3893H243.264V9.18802ZM259.999 5.8104H262.993V31.5647H259.999V5.8104ZM239.656 37.1301H263.952V39.7401H239.656V37.1301ZM239.656 28.6477H242.842V38.5502H239.656V28.6477ZM236.612 65.2825H243.175V67.9308H236.612V65.2825ZM248.971 51.8104H252.041V86.5077H248.971V51.8104ZM242.1 52.5397H245.133V84.7805H242.1V52.5397ZM230.356 54.6891C234.846 54.6891 237.763 59.3333 237.763 66.7794C237.763 74.2255 234.846 78.8697 230.356 78.8697C225.865 78.8697 222.986 74.2255 222.986 66.7794C222.986 59.3333 225.865 54.6891 230.356 54.6891ZM230.356 57.6445C227.63 57.6445 225.903 61.1756 225.903 66.7794C225.903 72.3831 227.63 75.9143 230.356 75.9143C233.119 75.9143 234.846 72.3831 234.846 66.7794C234.846 61.1756 233.119 57.6445 230.356 57.6445ZM284.279 51.8104H287.35V86.5077H284.279V51.8104ZM269.234 65.9734H277.985V68.5449H269.234V65.9734ZM277.063 52.6932H280.057V84.7421H277.063V52.6932ZM269.656 56.186H272.726C272.726 65.2825 269.08 73.4578 259.715 79.0232L257.834 76.7587C266.009 71.8458 269.656 64.937 269.656 56.7617V56.186ZM259.369 56.186H270.846V58.7959H259.369V56.186ZM293.181 77.6799C293.437 77.1681 293.821 76.8227 294.332 76.6435C294.87 76.4644 295.689 76.3749 296.789 76.3749C297.915 76.3749 298.721 76.618 299.207 77.1041C299.719 77.5903 299.974 78.3579 299.974 79.407V80.0212C299.974 80.6353 299.949 81.0959 299.898 81.4029C299.872 81.6844 299.757 82.0298 299.552 82.4392C299.143 83.1813 298.158 83.5523 296.597 83.5523C295.062 83.5523 294.038 83.3092 293.526 82.823C293.04 82.3113 292.797 81.3389 292.797 79.906C292.797 78.9081 292.925 78.166 293.181 77.6799ZM298.324 73.1892C297.838 73.3171 297.185 73.3811 296.367 73.3811C295.548 73.3811 294.895 73.3171 294.409 73.1892C293.923 73.0612 293.577 72.8309 293.373 72.4983C293.194 72.1656 293.079 71.8714 293.027 71.6155C293.002 71.3596 292.989 70.963 292.989 70.4257V58.2586C292.989 57.7212 293.002 57.3246 293.027 57.0687C293.079 56.7873 293.206 56.4802 293.411 56.1476C293.616 55.8149 293.961 55.5846 294.447 55.4567C294.934 55.3032 295.586 55.2264 296.405 55.2264C297.224 55.2264 297.876 55.3032 298.362 55.4567C298.849 55.5846 299.181 55.8277 299.36 56.186C299.565 56.5186 299.68 56.8256 299.706 57.1071C299.757 57.363 299.783 57.7596 299.783 58.297V70.464C299.783 71.0014 299.757 71.398 299.706 71.6539C299.68 71.9098 299.565 72.204 299.36 72.5367C299.156 72.8437 298.81 73.0612 298.324 73.1892Z" fill="white"/>
<path d="M50.5582 79.5606C49.8929 78.7418 49.5603 78.0125 49.5603 77.3728C49.5603 76.7075 50.1104 75.8375 51.2107 74.7628C51.8504 74.1487 52.5285 73.8417 53.245 73.8417C53.9614 73.8417 54.9593 74.4814 56.2387 75.7608C56.597 76.1958 57.1087 76.618 57.774 77.0274C58.4393 77.4112 59.0534 77.6031 59.6164 77.6031C61.996 77.6031 63.1859 76.6307 63.1859 74.6861C63.1859 74.0975 62.8532 73.6114 62.188 73.2275C61.5483 72.8181 60.7422 72.5239 59.7699 72.3448C58.7975 72.1656 57.7484 71.8842 56.6226 71.5004C55.4967 71.0909 54.4476 70.6176 53.4752 70.0802C52.5029 69.5429 51.6841 68.6985 51.0188 67.547C50.3791 66.37 50.0592 64.9626 50.0592 63.325C50.0592 61.0733 50.8909 59.1158 52.5541 57.4526C54.2429 55.7637 56.533 54.9193 59.4245 54.9193C60.9597 54.9193 62.3543 55.124 63.6081 55.5335C64.8875 55.9173 65.7703 56.3139 66.2564 56.7233L67.216 57.4526C68.0092 58.1946 68.4058 58.8215 68.4058 59.3333C68.4058 59.845 68.0988 60.5487 67.4847 61.4443C66.6147 62.7237 65.7191 63.3634 64.7979 63.3634C64.2606 63.3634 63.5953 63.1075 62.8021 62.5957C62.7253 62.5446 62.5718 62.4166 62.3415 62.2119C62.1368 62.0072 61.9449 61.8409 61.7658 61.713C61.2284 61.3803 60.5375 61.214 59.6931 61.214C58.8743 61.214 58.1834 61.4187 57.6205 61.8281C57.0832 62.2119 56.8145 62.7621 56.8145 63.4785C56.8145 64.1694 57.1343 64.7323 57.774 65.1673C58.4393 65.6023 59.2581 65.8966 60.2305 66.0501C61.2028 66.2036 62.2647 66.4467 63.4162 66.7794C64.5676 67.0864 65.6295 67.4703 66.6019 67.9308C67.5742 68.3914 68.3802 69.1974 69.0199 70.3489C69.6852 71.4748 70.0179 72.8693 70.0179 74.5325C70.0179 76.1958 69.6852 77.6671 69.0199 78.9465C68.3547 80.2003 67.4847 81.1726 66.41 81.8635C64.3373 83.2197 62.124 83.8977 59.7699 83.8977C58.5673 83.8977 57.4286 83.757 56.3539 83.4755C55.2792 83.1685 54.4092 82.7975 53.7439 82.3625C52.3878 81.5436 51.441 80.7504 50.9037 79.9828L50.5582 79.5606ZM85.7164 55.0345C89.5034 55.0345 92.7915 56.4034 95.5806 59.1414C98.3697 61.8793 99.7642 65.2825 99.7642 69.351C99.7642 73.3939 98.4336 76.8482 95.7725 79.7141C93.1113 82.5544 89.8361 83.9745 85.9467 83.9745C82.0573 83.9745 78.7437 82.5672 76.0058 79.7525C73.2934 76.9378 71.9373 73.5858 71.9373 69.6964C71.9373 67.5726 72.3211 65.5895 73.0887 63.7472C73.8564 61.8793 74.8799 60.3184 76.1593 59.0646C77.4387 57.8108 78.91 56.8256 80.5732 56.1092C82.2364 55.3927 83.9508 55.0345 85.7164 55.0345ZM78.7309 69.5045C78.7309 71.7818 79.4601 73.637 80.9187 75.0699C82.4028 76.4772 84.0532 77.1809 85.8699 77.1809C87.6867 77.1809 89.3243 76.49 90.7828 75.1083C92.2413 73.7265 92.9706 71.8714 92.9706 69.5429C92.9706 67.2144 92.2285 65.3464 90.7444 63.9391C89.2859 62.5318 87.6483 61.8281 85.8315 61.8281C84.0148 61.8281 82.3772 62.5446 80.9187 63.9775C79.4601 65.3848 78.7309 67.2272 78.7309 69.5045ZM115.477 55.0345C119.264 55.0345 122.553 56.4034 125.342 59.1414C128.131 61.8793 129.525 65.2825 129.525 69.351C129.525 73.3939 128.195 76.8482 125.534 79.7141C122.872 82.5544 119.597 83.9745 115.708 83.9745C111.818 83.9745 108.505 82.5672 105.767 79.7525C103.054 76.9378 101.698 73.5858 101.698 69.6964C101.698 67.5726 102.082 65.5895 102.85 63.7472C103.617 61.8793 104.641 60.3184 105.92 59.0646C107.2 57.8108 108.671 56.8256 110.334 56.1092C111.997 55.3927 113.712 55.0345 115.477 55.0345ZM108.492 69.5045C108.492 71.7818 109.221 73.637 110.68 75.0699C112.164 76.4772 113.814 77.1809 115.631 77.1809C117.448 77.1809 119.085 76.49 120.544 75.1083C122.002 73.7265 122.732 71.8714 122.732 69.5429C122.732 67.2144 121.99 65.3464 120.505 63.9391C119.047 62.5318 117.409 61.8281 115.593 61.8281C113.776 61.8281 112.138 62.5446 110.68 63.9775C109.221 65.3848 108.492 67.2272 108.492 69.5045ZM161.935 56.4546C162.139 56.8384 162.254 57.1839 162.28 57.4909C162.331 57.798 162.357 58.2458 162.357 58.8343V80.1363C162.357 81.9019 161.871 82.9382 160.898 83.2452C160.412 83.3988 159.798 83.4755 159.056 83.4755C158.314 83.4755 157.725 83.4116 157.29 83.2836C156.855 83.1557 156.523 83.0022 156.292 82.823C156.062 82.6439 155.883 82.388 155.755 82.0554C155.627 81.6204 155.563 80.9551 155.563 80.0595V67.2016C154.924 67.9948 153.99 69.2614 152.761 71.0014C151.533 72.7158 150.753 73.7905 150.42 74.2255C150.087 74.6605 149.857 74.9675 149.729 75.1466C149.601 75.3002 149.281 75.5305 148.77 75.8375C148.283 76.119 147.746 76.2597 147.158 76.2597C146.595 76.2597 146.07 76.1318 145.584 75.8759C145.123 75.5944 144.791 75.3258 144.586 75.0699L144.279 74.6477C143.767 74.008 142.756 72.6518 141.247 70.5792C139.737 68.481 138.918 67.3551 138.79 67.2016V80.1363C138.79 80.7248 138.765 81.1726 138.714 81.4797C138.688 81.7611 138.573 82.081 138.368 82.4392C137.984 83.1301 136.986 83.4755 135.374 83.4755C133.813 83.4755 132.841 83.1301 132.457 82.4392C132.253 82.081 132.125 81.7483 132.073 81.4413C132.048 81.1342 132.035 80.6736 132.035 80.0595V58.7575C132.035 58.169 132.048 57.734 132.073 57.4526C132.125 57.1455 132.253 56.8001 132.457 56.4162C132.841 55.751 133.839 55.4183 135.451 55.4183C136.142 55.4183 136.73 55.5079 137.217 55.687C137.728 55.8405 138.061 56.0068 138.215 56.186L138.445 56.4162L147.158 67.8541C151.508 62.0968 154.412 58.297 155.87 56.4546C156.305 55.7637 157.329 55.4183 158.941 55.4183C160.578 55.4183 161.576 55.7637 161.935 56.4546ZM180.094 66.5491H186.849C188.231 66.6003 189.075 66.9585 189.382 67.6238C189.638 68.11 189.766 68.8264 189.766 69.7732V78.2172C189.766 79.036 189.408 79.8165 188.691 80.5585C186.542 82.7847 183.318 83.8977 179.019 83.8977C175.206 83.8977 171.893 82.4648 169.078 79.599C166.263 76.7075 164.856 73.2275 164.856 69.1591C164.856 65.0906 166.289 61.7002 169.155 58.9878C172.021 56.2499 175.398 54.881 179.288 54.881C182.307 54.881 185.16 55.8789 187.847 57.8748C188.538 58.3865 188.883 58.9622 188.883 59.6019C188.883 60.2161 188.589 60.9325 188 61.7513C187.003 63.1075 186.094 63.7856 185.275 63.7856C184.789 63.7856 184.009 63.4401 182.934 62.7493C181.859 62.0328 180.58 61.6746 179.096 61.6746C177.151 61.6746 175.424 62.3654 173.914 63.7472C172.405 65.1034 171.65 66.8945 171.65 69.1207C171.65 71.3212 172.417 73.202 173.953 74.7628C175.488 76.2981 177.228 77.0657 179.173 77.0657C180.58 77.0657 181.847 76.8355 182.972 76.3749V72.1912H179.94C179.147 72.1912 178.584 72.0889 178.251 71.8842C177.919 71.6795 177.701 71.3852 177.599 71.0014C177.497 70.592 177.445 70.0546 177.445 69.3893C177.445 68.6985 177.497 68.1483 177.599 67.7389C177.727 67.3295 177.944 67.048 178.251 66.8945C178.712 66.6642 179.326 66.5491 180.094 66.5491ZM209.067 57.3758L219.43 78.7929C219.865 79.6629 220.083 80.3154 220.083 80.7504C220.083 81.6716 219.341 82.5032 217.857 83.2452C216.987 83.6802 216.296 83.8977 215.784 83.8977C215.298 83.8977 214.888 83.7826 214.556 83.5523C214.249 83.322 214.018 83.0789 213.865 82.823C213.737 82.5672 213.545 82.1833 213.289 81.6716L211.293 77.5263H200.661L198.666 81.6716C198.41 82.1833 198.205 82.5544 198.051 82.7847C197.924 83.015 197.693 83.258 197.361 83.5139C197.054 83.7442 196.644 83.8594 196.132 83.8594C195.646 83.8594 194.968 83.6419 194.098 83.2069C192.614 82.4904 191.872 81.6716 191.872 80.7504C191.872 80.3154 192.089 79.6629 192.524 78.7929L202.888 57.3374C203.169 56.7489 203.591 56.2755 204.154 55.9173C204.743 55.559 205.357 55.3799 205.997 55.3799C207.378 55.3799 208.402 56.0452 209.067 57.3758ZM205.958 66.5875L203.425 71.8458H208.53L205.958 66.5875Z" fill="#DC2626"/>
<path d="M43.8289 59.1706C43.5257 58.8628 43.1449 58.6427 42.7268 58.5336C42.3088 58.4245 41.869 58.4304 41.454 58.5508L3.76816 69.18C3.2926 69.3142 2.86931 69.5903 2.55487 69.9714C2.24043 70.3526 2.04981 70.8207 2.0085 71.313C1.96719 71.8054 2.07715 72.2987 2.32368 72.7269C2.57022 73.1552 2.94158 73.4979 3.38815 73.7094L20.7033 81.9113C20.872 81.9914 21.0079 82.1273 21.0881 82.296L29.2901 99.6114C29.4841 100.027 29.7931 100.379 30.1805 100.625C30.568 100.871 31.0178 101.001 31.4768 101C31.5463 101 31.6162 100.997 31.6865 100.991C32.1798 100.952 32.6492 100.763 33.0308 100.448C33.4125 100.133 33.6879 99.7083 33.8195 99.2313L44.4487 61.5455C44.569 61.1305 44.5749 60.6908 44.4658 60.2727C44.3567 59.8546 44.1367 59.4738 43.8289 59.1706ZM42.8915 61.1062L32.2623 98.7921C32.2176 98.9506 32.1255 99.0917 31.9985 99.1965C31.8715 99.3013 31.7154 99.3649 31.5513 99.3787C31.3872 99.3925 31.2228 99.3558 31.08 99.2737C30.9373 99.1915 30.823 99.0677 30.7525 98.9189L22.5503 81.6033L22.5468 81.5967L31.297 72.8465C31.4487 72.6948 31.5339 72.4891 31.5339 72.2745C31.5339 72.06 31.4487 71.8542 31.297 71.7025C31.1453 71.5508 30.9396 71.4656 30.725 71.4656C30.5105 71.4656 30.3047 71.5508 30.153 71.7025L21.4028 80.4527L21.396 80.4491L4.08063 72.2471C3.93179 72.1765 3.80801 72.0623 3.72585 71.9195C3.64368 71.7768 3.60704 71.6123 3.62083 71.4482C3.63461 71.2841 3.69817 71.1281 3.80299 71.001C3.90782 70.874 4.04892 70.7819 4.20745 70.7372L41.8933 60.108C41.9678 60.0865 42.045 60.0755 42.1226 60.0752C42.3342 60.078 42.5362 60.164 42.6849 60.3146C42.788 60.4153 42.8617 60.5423 42.8981 60.6817C42.9345 60.8212 42.9322 60.9679 42.8915 61.1062Z" fill="#DC2626"/>
<path d="M30.6394 72.3709V56.5465M30.6394 56.5465V47.2921C30.6394 47.1308 30.5086 47 30.3473 47H17.5333C17.2721 47 17.1422 47.3166 17.3282 47.5L21.402 51.5188C21.5172 51.6324 21.5181 51.8179 21.4041 51.9326L17.3159 56.0485C17.1328 56.2328 17.2634 56.5465 17.5231 56.5465H30.6394Z" stroke="#DC2626" stroke-width="2.43409"/>
</svg>
